/* XPM */
static char * I:\Misc\Webs\Deuscoin\deuscoin\tools\graphics\pixmaps\deuscoin16_xpm[] = {
"16 16 217 2",
"  	c None",
". 	c #69DBFF",
"+ 	c #6ADCFF",
"@ 	c #68D8FF",
"# 	c #66D6FF",
"$ 	c #67D7FE",
"% 	c #61CCFC",
"& 	c #64D0FE",
"* 	c #5FC9FB",
"= 	c #5EC5FB",
"- 	c #64D1FD",
"; 	c #64D1FE",
"> 	c #63D0FE",
", 	c #63CFFE",
"' 	c #62CCFD",
") 	c #68D9FF",
"! 	c #6CDFFF",
"~ 	c #6DE2FF",
"{ 	c #6FE3FF",
"] 	c #6FE2FF",
"^ 	c #6ADAFE",
"/ 	c #61C8FD",
"( 	c #65D2FE",
"_ 	c #66D4FE",
": 	c #64CEFF",
"< 	c #67D5FF",
"[ 	c #65D1FF",
"} 	c #6EE1FF",
"| 	c #63CAE4",
"1 	c #193238",
"2 	c #438898",
"3 	c #70E3FE",
"4 	c #61C2DA",
"5 	c #3C7A8D",
"6 	c #0E1C1F",
"7 	c #091217",
"8 	c #356E8D",
"9 	c #55AEDA",
"0 	c #66D3FF",
"a 	c #3D7E9B",
"b 	c #142A34",
"c 	c #5CBFEC",
"d 	c #65D4FE",
"e 	c #6DE0FF",
"f 	c #21434C",
"g 	c #091315",
"h 	c #6FE0FB",
"i 	c #71E6FF",
"j 	c #61CAF4",
"k 	c #04090B",
"l 	c #0E1D25",
"m 	c #5DC3FC",
"n 	c #61C8F9",
"o 	c #5DC1F0",
"p 	c #000000",
"q 	c #2D5D71",
"r 	c #66D1FF",
"s 	c #63CEFC",
"t 	c #6DE0FE",
"u 	c #23474F",
"v 	c #6EDFF8",
"w 	c #71E5FE",
"x 	c #5BBDED",
"y 	c #132732",
"z 	c #62CCFF",
"A 	c #62C8FA",
"B 	c #4794BB",
"C 	c #2F607A",
"D 	c #64CDFF",
"E 	c #66D2FE",
"F 	c #2A555F",
"G 	c #5CBFE9",
"H 	c #64CEF6",
"I 	c #53AFE0",
"J 	c #04080A",
"K 	c #11222A",
"L 	c #59B9ED",
"M 	c #469DC8",
"N 	c #377390",
"O 	c #3C7C95",
"P 	c #69DAFF",
"Q 	c #478F9F",
"R 	c #307093",
"S 	c #5DC4F3",
"T 	c #56B6E1",
"U 	c #0C1C23",
"V 	c #57B6E8",
"W 	c #3686AE",
"X 	c #245067",
"Y 	c #55B0D6",
"Z 	c #66D1FE",
"` 	c #6BDDFE",
" .	c #71E4FF",
"..	c #76EFFF",
"+.	c #152A2E",
"@.	c #050A0D",
"#.	c #56B4E2",
"$.	c #4EAAD7",
"%.	c #030709",
"&.	c #12252D",
"*.	c #52B0E0",
"=.	c #50A9D6",
"-.	c #03090C",
";.	c #12252C",
">.	c #64CEFC",
",.	c #65D1FD",
"'.	c #69D9FE",
").	c #70E2FE",
"!.	c #72E5FF",
"~.	c #72E5FD",
"{.	c #418494",
"].	c #254A52",
"^.	c #204251",
"/.	c #010304",
"(.	c #080F13",
"_.	c #254D5E",
":.	c #224551",
"<.	c #3F829C",
"[.	c #64CFFF",
"}.	c #61C6FA",
"|.	c #5FC8F9",
"1.	c #6EE1FE",
"2.	c #71E5FF",
"3.	c #72E8FF",
"4.	c #050A0C",
"5.	c #152B34",
"6.	c #66D4FB",
"7.	c #63CDF3",
"8.	c #60C7F9",
"9.	c #53AEDF",
"0.	c #51ABDB",
"a.	c #53B2E3",
"b.	c #58B7E8",
"c.	c #62CCFE",
"d.	c #59BEE7",
"e.	c #47A2C8",
"f.	c #030608",
"g.	c #0E1F27",
"h.	c #56B6E7",
"i.	c #4CA4CF",
"j.	c #57B6E5",
"k.	c #56B4E6",
"l.	c #54B0DF",
"m.	c #53ACD9",
"n.	c #4FA5CF",
"o.	c #4099C5",
"p.	c #55B4E3",
"q.	c #59BDF0",
"r.	c #51AEDB",
"s.	c #5ABAEA",
"t.	c #63CBFC",
"u.	c #5DC3F0",
"v.	c #0B1C24",
"w.	c #3A91BB",
"x.	c #4397BF",
"y.	c #49A4D5",
"z.	c #4092BE",
"A.	c #3788B1",
"B.	c #2878A1",
"C.	c #23749E",
"D.	c #135F87",
"E.	c #3B93BF",
"F.	c #398DB7",
"G.	c #3B8AB0",
"H.	c #3E91B8",
"I.	c #469BC5",
"J.	c #102029",
"K.	c #3890BE",
"L.	c #2878A2",
"M.	c #1B6993",
"N.	c #1A658A",
"O.	c #115C82",
"P.	c #0E587D",
"Q.	c #024264",
"R.	c #0E577D",
"S.	c #186389",
"T.	c #115C80",
"U.	c #10567A",
"V.	c #114A66",
"W.	c #1C4051",
"X.	c #092635",
"Y.	c #0A435E",
"Z.	c #095074",
"`.	c #064C6F",
" +	c #064C6E",
".+	c #084E6F",
"++	c #054D6E",
"@+	c #013955",
"#+	c #013D5C",
"$+	c #024162",
"%+	c #024364",
"&+	c #013E5D",
"*+	c #064565",
"=+	c #0E5479",
"-+	c #0B5073",
";+	c #064564",
">+	c #02405E",
",+	c #024363",
"'+	c #014364",
")+	c #024464",
"!+	c #044767",
"~+	c #054A69",
"{+	c #01334C",
"]+	c #01354E",
"^+	c #013753",
"/+	c #013855",
"(+	c #013957",
"_+	c #013C5A",
":+	c #023F5F",
"<+	c #01405F",
"[+	c #023F5E",
"}+	c #013E5C",
"|+	c #003D59",
"1+	c #013E5A",
"2+	c #01405D",
"3+	c #034461",
"4+	c #054868",
". + + @ # $ % & * = - ; > , ' ) ",
"! ~ { ] ] { { ^ / ' ( ( _ : < [ ",
"} | 1 2 3 4 5 6 7 8 9 0 a b c d ",
"e ] f g h i j k l m n o p q r s ",
"t ] u p v w x k y z A B p C D E ",
"] 3 F p G H I J K L M N p O < P ",
"} 3 Q p R S T J U V W X p Y Z P ",
"`  ...+.@.#.$.%.&.*.=.-.;.>.,.'.",
"+ ).!.~.{.].^./.(._.:.<.0 [.}.|.",
", $ t 1.2.3.] 4.5.0 6.7.! 8.9.0.",
"a.b.; # c.d.e.f.g.h.i.j.k.l.m.n.",
"o.p.q.r.s.t.u.J v.w.x.y.z.A.B.C.",
"D.E.F.G.H.I.V J J.K.L.M.N.O.P.P.",
"Q.R.S.T.U.V.W.p p X.Y.Z.`. +.+++",
"@+#+$+%+%+&+*+=+-+;+>+,+'+)+!+~+",
"{+]+^+/+(+(+_+:+<+[+}+|+1+2+3+4+"};
