/* XPM */
static char * I:\Misc\Webs\Deuscoin\deuscoin\tools\graphics\pixmaps\deuscoin32_xpm[] = {
"32 32 698 2",
"  	c None",
". 	c #67D9FF",
"+ 	c #68DAFF",
"@ 	c #69DBFF",
"# 	c #68D8FF",
"$ 	c #64D1FE",
"% 	c #66D6FF",
"& 	c #66D7FF",
"* 	c #64D2FE",
"= 	c #63D2FE",
"- 	c #5EC5FB",
"; 	c #61CCFD",
"> 	c #62CDFE",
", 	c #62CFFF",
"' 	c #5CC1F8",
") 	c #5BBFF8",
"! 	c #61CAFB",
"~ 	c #65D5FE",
"{ 	c #65D4FE",
"] 	c #65D3FE",
"^ 	c #62CEFE",
"/ 	c #64D3FE",
"( 	c #5FC7FC",
"_ 	c #67D7FE",
": 	c #6ADCFF",
"< 	c #6BDDFF",
"[ 	c #6BDEFF",
"} 	c #6CDEFF",
"| 	c #69DAFE",
"1 	c #66D5FE",
"2 	c #67D8FE",
"3 	c #62CCFE",
"4 	c #64D2FF",
"5 	c #5FC8F9",
"6 	c #61CAFE",
"7 	c #60C9FB",
"8 	c #65D3FF",
"9 	c #63CEFE",
"0 	c #64D0FE",
"a 	c #60C9FF",
"b 	c #5FC4FC",
"c 	c #68D7FE",
"d 	c #6CDFFF",
"e 	c #6DE0FF",
"f 	c #6DE1FE",
"g 	c #6EE1FE",
"h 	c #6EE1FF",
"i 	c #6EE2FF",
"j 	c #6FE2FE",
"k 	c #69D9FE",
"l 	c #6BDCFF",
"m 	c #68D8FE",
"n 	c #62CCFD",
"o 	c #5FC7FB",
"p 	c #60C9FC",
"q 	c #60C8FD",
"r 	c #5EC3F8",
"s 	c #65D2FF",
"t 	c #64D0FF",
"u 	c #62CCFF",
"v 	c #61C9FF",
"w 	c #62CAFD",
"x 	c #69DCFE",
"y 	c #62CBFE",
"z 	c #6DE1FF",
"A 	c #6EE3FF",
"B 	c #5DBFD7",
"C 	c #66D0EA",
"D 	c #71E5FF",
"E 	c #70E3FF",
"F 	c #6FE2FF",
"G 	c #70E3FE",
"H 	c #70E2FD",
"I 	c #6FE0FB",
"J 	c #6FE1FB",
"K 	c #70E1FC",
"L 	c #70E2FC",
"M 	c #65D2F8",
"N 	c #5FC4F9",
"O 	c #62C9FA",
"P 	c #60C6FA",
"Q 	c #5DC0F2",
"R 	c #61C8F7",
"S 	c #63CFFE",
"T 	c #63CEFF",
"U 	c #67D6FE",
"V 	c #69D9FF",
"W 	c #5CBEE7",
"X 	c #56B2DD",
"Y 	c #64CEFE",
"Z 	c #6EE0FD",
"` 	c #72EBFF",
" .	c #21424B",
"..	c #020405",
"+.	c #0D1A1E",
"@.	c #61C4DC",
"#.	c #71E4FF",
"$.	c #4994AB",
"%.	c #000000",
"&.	c #010202",
"*.	c #030606",
"=.	c #030607",
"-.	c #030507",
";.	c #020506",
">.	c #55ADDE",
",.	c #63CCFD",
"'.	c #65D0FE",
").	c #64D1FF",
"!.	c #4EA2C3",
"~.	c #070E11",
"{.	c #2C5A72",
"].	c #68DAFE",
"^.	c #63CDFE",
"/.	c #6DE0FE",
"(.	c #74ECFF",
"_.	c #2C5863",
":.	c #64CBE3",
"<.	c #70E4FF",
"[.	c #70E2FE",
"}.	c #72E7FF",
"|.	c #76EEFF",
"1.	c #65D1F0",
"2.	c #367088",
"3.	c #3B7A9D",
"4.	c #52ACDE",
"5.	c #62C9FF",
"6.	c #64CFFF",
"7.	c #63CCFF",
"8.	c #4B9BC0",
"9.	c #3A799A",
"0.	c #64CDFF",
"a.	c #69DAFF",
"b.	c #60C7FB",
"c.	c #56ACC0",
"d.	c #132529",
"e.	c #75ECFF",
"f.	c #62CCFA",
"g.	c #6ADEFF",
"h.	c #0E1C1F",
"i.	c #152B38",
"j.	c #5FC5FB",
"k.	c #53AFE2",
"l.	c #5FC2F8",
"m.	c #64D0FD",
"n.	c #5FC5F8",
"o.	c #010101",
"p.	c #62CAF9",
"q.	c #5FC3FC",
"r.	c #64CDFD",
"s.	c #67D4FF",
"t.	c #5EC2F7",
"u.	c #62C4DC",
"v.	c #63C8DF",
"w.	c #71E5FE",
"x.	c #72E6FE",
"y.	c #65CFFF",
"z.	c #17303B",
"A.	c #1D3C4D",
"B.	c #50ACE0",
"C.	c #59B9ED",
"D.	c #63CFFF",
"E.	c #4DA1C7",
"F.	c #010000",
"G.	c #64CFFD",
"H.	c #63CAFF",
"I.	c #65CFFE",
"J.	c #67D7FF",
"K.	c #5CC3FA",
"L.	c #65CCE3",
"M.	c #52A4B8",
"N.	c #71E4FE",
"O.	c #62C8F4",
"P.	c #1C3743",
"Q.	c #224559",
"R.	c #62CBFD",
"S.	c #56B4E8",
"T.	c #5EC1F6",
"U.	c #60C8FC",
"V.	c #3F80A3",
"W.	c #61C8FD",
"X.	c #61C9FE",
"Y.	c #63CDFF",
"Z.	c #66D2FE",
"`.	c #6FE3FF",
" +	c #69D3EC",
".+	c #4892A3",
"++	c #6FE1FD",
"@+	c #60CAF6",
"#+	c #62CBFF",
"$+	c #1A3542",
"%+	c #224558",
"&+	c #5FC5F5",
"*+	c #59B9EB",
"=+	c #60C3F8",
"-+	c #66D1FE",
";+	c #61C9FC",
">+	c #336987",
",+	c #030506",
"'+	c #5FC4FB",
")+	c #5EC2FA",
"!+	c #62C8FB",
"~+	c #6DE0FD",
"{+	c #72E8FF",
"]+	c #3B7791",
"^+	c #68D7FB",
"/+	c #6CDDFE",
"(+	c #70E5FF",
"_+	c #5DC0F1",
":+	c #62C7FA",
"<+	c #1B3643",
"[+	c #1E3E4F",
"}+	c #4CA2D1",
"|+	c #3688B0",
"1+	c #4093BF",
"2+	c #61C5F7",
"3+	c #5CBFF0",
"4+	c #28546B",
"5+	c #060D0F",
"6+	c #65D2FE",
"7+	c #69DBFE",
"8+	c #66D4FF",
"9+	c #73E8FF",
"0+	c #05090A",
"a+	c #336980",
"b+	c #58BBED",
"c+	c #56B7EA",
"d+	c #5BBFEF",
"e+	c #4FAADD",
"f+	c #51AFE1",
"g+	c #162E3B",
"h+	c #1B3947",
"i+	c #5EC0F4",
"j+	c #5FC2F6",
"k+	c #4296C0",
"l+	c #3684AB",
"m+	c #4A9DC5",
"n+	c #1E4050",
"o+	c #0D1A20",
"p+	c #66D4FE",
"q+	c #67D5FF",
"r+	c #73E9FF",
"s+	c #14292D",
"t+	c #1B3C50",
"u+	c #459ECD",
"v+	c #5BBFF0",
"w+	c #65D1FD",
"x+	c #61CBF7",
"y+	c #5CBCED",
"z+	c #162E3C",
"A+	c #14303D",
"B+	c #55B0E1",
"C+	c #59B8EC",
"D+	c #4094BE",
"E+	c #3E8EB5",
"F+	c #4AA2CF",
"G+	c #0E202A",
"H+	c #172F3A",
"I+	c #68D4FE",
"J+	c #69DCFF",
"K+	c #6ADBFF",
"L+	c #6FE3FE",
"M+	c #30606A",
"N+	c #0B171E",
"O+	c #4BACE1",
"P+	c #55B5E8",
"Q+	c #55B4E4",
"R+	c #50ACD8",
"S+	c #469FCE",
"T+	c #0F2632",
"U+	c #55AEDC",
"V+	c #29779E",
"W+	c #317DA1",
"X+	c #27759C",
"Y+	c #3E91BB",
"Z+	c #366F86",
"`+	c #67D5FE",
" @	c #6ADCFE",
".@	c #6CDDFF",
"+@	c #72E6FF",
"@@	c #6BD7EF",
"#@	c #3D7E9C",
"$@	c #4EABDD",
"%@	c #54B0E0",
"&@	c #4098C6",
"*@	c #439ECD",
"=@	c #162F3B",
"-@	c #1A3847",
";@	c #52ABD8",
">@	c #53B1E1",
",@	c #479BC5",
"'@	c #4EA8D6",
")@	c #1B4153",
"!@	c #0B171A",
"~@	c #65D1FF",
"{@	c #6BDEFE",
"]@	c #6CDEFE",
"^@	c #61C4D8",
"/@	c #060C0D",
"(@	c #438DAA",
"_@	c #5ABBE7",
":@	c #5BBCEB",
"<@	c #429FCF",
"[@	c #102631",
"}@	c #244758",
"|@	c #50AAD6",
"1@	c #489FCB",
"2@	c #4CA4D0",
"3@	c #326883",
"4@	c #070D10",
"5@	c #5CBFE3",
"6@	c #60C6FC",
"7@	c #6CDFFE",
"8@	c #73E7FF",
"9@	c #6AD6ED",
"0@	c #2A545D",
"a@	c #071014",
"b@	c #10212A",
"c@	c #214557",
"d@	c #071015",
"e@	c #0E1C23",
"f@	c #214355",
"g@	c #11242C",
"h@	c #070E12",
"i@	c #346979",
"j@	c #67D5F2",
"k@	c #66D5FF",
"l@	c #65D0FF",
"m@	c #61C7FC",
"n@	c #62CEFD",
"o@	c #69DDFF",
"p@	c #6DDFFE",
"q@	c #70E4FE",
"r@	c #72E5FF",
"s@	c #77F0FF",
"t@	c #60C5E2",
"u@	c #4891A0",
"v@	c #31626D",
"w@	c #23454E",
"x@	c #132834",
"y@	c #04080B",
"z@	c #081014",
"A@	c #18323D",
"B@	c #214453",
"C@	c #306373",
"D@	c #4692AA",
"E@	c #66D4F6",
"F@	c #64CCFF",
"G@	c #5DC3F3",
"H@	c #69D8FD",
"I@	c #5FC2F7",
"J@	c #5EC0F3",
"K@	c #5DC4F8",
"L@	c #56B5E9",
"M@	c #76EFFF",
"N@	c #1B3540",
"O@	c #254A5A",
"P@	c #62C8F8",
"Q@	c #61CDF2",
"R@	c #69D7FB",
"S@	c #68D7FD",
"T@	c #6EE0FE",
"U@	c #61C9FD",
"V@	c #56B4E4",
"W@	c #56B4E7",
"X@	c #57B6E7",
"Y@	c #51ABDB",
"Z@	c #60C6FD",
"`@	c #6ADBFE",
" #	c #69D6FA",
".#	c #66D3F9",
"+#	c #67D5FD",
"@#	c #1B3743",
"##	c #254B5B",
"$#	c #5EC2F3",
"%#	c #58B9E8",
"&#	c #5ABCEB",
"*#	c #64CDF5",
"=#	c #54B2E0",
"-#	c #5FC7F3",
";#	c #5DC0F5",
">#	c #5BBBEE",
",#	c #52ADDE",
"'#	c #4BA4D2",
")#	c #4BA4D3",
"!#	c #50A8D5",
"~#	c #58B9ED",
"{#	c #5ABCF2",
"]#	c #5ABDF2",
"^#	c #5CC0F5",
"/#	c #5FC8FD",
"(#	c #5EC6EE",
"_#	c #4EAED8",
":#	c #4CACD2",
"<#	c #57BCEB",
"[#	c #132A35",
"}#	c #1A3848",
"|#	c #4EAAD9",
"1#	c #4295BC",
"2#	c #4398C1",
"3#	c #469BC6",
"4#	c #59BBE8",
"5#	c #62CDFA",
"6#	c #55B2E5",
"7#	c #59B8EA",
"8#	c #57B5E7",
"9#	c #54B0DF",
"0#	c #4FA7D5",
"a#	c #49A0CD",
"b#	c #4EA3CE",
"c#	c #49A5D5",
"d#	c #4DA9D8",
"e#	c #54B0DE",
"f#	c #5BBBEC",
"g#	c #67D6FF",
"h#	c #60C7FC",
"i#	c #58BAE4",
"j#	c #5CC5EB",
"k#	c #55B8DD",
"l#	c #2A7CA3",
"m#	c #102632",
"n#	c #1A3948",
"o#	c #5DBFF4",
"p#	c #51ACDB",
"q#	c #4498C3",
"r#	c #489BC3",
"s#	c #57B5E5",
"t#	c #53B2E6",
"u#	c #50ACDC",
"v#	c #50A9D7",
"w#	c #4FA5D3",
"x#	c #51AAD7",
"y#	c #51A9D5",
"z#	c #51A8D4",
"A#	c #4FA5D1",
"B#	c #479CC7",
"C#	c #419AC7",
"D#	c #53AFDD",
"E#	c #56B3E0",
"F#	c #5BBCF0",
"G#	c #5DC3F9",
"H#	c #61CCFF",
"I#	c #5EC5F7",
"J#	c #55B5E5",
"K#	c #51ADDD",
"L#	c #63D0F7",
"M#	c #153240",
"N#	c #3489B5",
"O#	c #3A8FBA",
"P#	c #4193BB",
"Q#	c #4EA6D2",
"R#	c #57B5E9",
"S#	c #439CCC",
"T#	c #4498C6",
"U#	c #4BA1CC",
"V#	c #469BC7",
"W#	c #3D90BB",
"X#	c #3487B2",
"Y#	c #277BA8",
"Z#	c #2A7DA8",
"`#	c #3082AD",
" $	c #2A7CA5",
".$	c #48A3CF",
"+$	c #53B2E0",
"@$	c #52AFDF",
"#$	c #56B5E7",
"$$	c #4FACDD",
"%$	c #479DC8",
"&$	c #4397C2",
"*$	c #53ABD6",
"=$	c #58B5E4",
"-$	c #59B6E7",
";$	c #61C7FB",
">$	c #5EC8F8",
",$	c #0E222C",
"'$	c #13303F",
")$	c #2D7DA4",
"!$	c #3081AA",
"~$	c #398AB3",
"{$	c #4295C0",
"]$	c #4CA8D7",
"^$	c #3B91BF",
"/$	c #398BB7",
"($	c #3786AE",
"_$	c #3180A6",
":$	c #2A779D",
"<$	c #237096",
"[$	c #17648B",
"}$	c #19678F",
"|$	c #1B6A93",
"1$	c #115C83",
"2$	c #3086B1",
"3$	c #3F98C5",
"4$	c #49A3D0",
"5$	c #4DA8D7",
"6$	c #3F92BB",
"7$	c #489BC1",
"8$	c #4495B9",
"9$	c #4092B9",
"0$	c #52ACD6",
"a$	c #53ACD6",
"b$	c #54B1E1",
"c$	c #5CBFF3",
"d$	c #214255",
"e$	c #52ADDA",
"f$	c #3E92BC",
"g$	c #3C90BB",
"h$	c #3588B1",
"i$	c #2B7FAB",
"j$	c #1E6F9C",
"k$	c #206D95",
"l$	c #247196",
"m$	c #1A678D",
"n$	c #156087",
"o$	c #125E84",
"p$	c #105A7F",
"q$	c #105B81",
"r$	c #105D82",
"s$	c #044B70",
"t$	c #0F5C84",
"u$	c #297DAA",
"v$	c #378DB9",
"w$	c #2D7EA7",
"x$	c #2B7CA4",
"y$	c #2F7DA3",
"z$	c #307EA2",
"A$	c #2B779C",
"B$	c #2E7DA3",
"C$	c #3484A9",
"D$	c #3A8AB1",
"E$	c #55B1DD",
"F$	c #5BBDF0",
"G$	c #0D1C24",
"H$	c #0F2530",
"I$	c #25759E",
"J$	c #16628A",
"K$	c #18648B",
"L$	c #196389",
"M$	c #146087",
"N$	c #135E84",
"O$	c #135D82",
"P$	c #0F597E",
"Q$	c #0E577B",
"R$	c #0D567D",
"S$	c #0B567A",
"T$	c #0A5378",
"U$	c #095277",
"V$	c #0C567A",
"W$	c #014265",
"X$	c #054B70",
"Y$	c #0E5980",
"Z$	c #1D6C94",
"`$	c #267298",
" %	c #1B668D",
".%	c #1A658C",
"+%	c #135C82",
"@%	c #175F84",
"#%	c #135C81",
"$%	c #135D84",
"%%	c #2979A0",
"&%	c #4298C1",
"*%	c #4086AB",
"=%	c #010203",
"-%	c #13506E",
";%	c #115C82",
">%	c #0D577C",
",%	c #11587B",
"'%	c #0C5579",
")%	c #0A5377",
"!%	c #095174",
"~%	c #075072",
"{%	c #084F72",
"]%	c #074F71",
"^%	c #0A5273",
"/%	c #094F70",
"(%	c #074D70",
"_%	c #013E5C",
":%	c #004163",
"<%	c #04476B",
"[%	c #0B5175",
"}%	c #115A7E",
"|%	c #0D567A",
"1%	c #0B5376",
"2%	c #084D70",
"3%	c #063B56",
"4%	c #05171F",
"5%	c #020607",
"6%	c #02080A",
"7%	c #04161E",
"8%	c #074866",
"9%	c #064C6E",
"0%	c #064B6D",
"a%	c #04496C",
"b%	c #04496B",
"c%	c #054A6B",
"d%	c #05496B",
"e%	c #074B6D",
"f%	c #074D6D",
"g%	c #044B6B",
"h%	c #054C6C",
"i%	c #013956",
"j%	c #003D5A",
"k%	c #013F5D",
"l%	c #024363",
"m%	c #034566",
"n%	c #054769",
"o%	c #05476A",
"p%	c #044768",
"q%	c #044769",
"r%	c #034568",
"s%	c #034264",
"t%	c #033E5C",
"u%	c #094665",
"v%	c #0B4A6A",
"w%	c #115478",
"x%	c #13587E",
"y%	c #115376",
"z%	c #0B4B6C",
"A%	c #084665",
"B%	c #064462",
"C%	c #03405D",
"D%	c #044565",
"E%	c #024566",
"F%	c #024567",
"G%	c #024565",
"H%	c #024564",
"I%	c #024465",
"J%	c #044767",
"K%	c #044968",
"L%	c #044A69",
"M%	c #044A6A",
"N%	c #003752",
"O%	c #013854",
"P%	c #013A56",
"Q%	c #013B58",
"R%	c #013D5C",
"S%	c #003E5C",
"T%	c #01405E",
"U%	c #013F5F",
"V%	c #014061",
"W%	c #014060",
"X%	c #003F62",
"Y%	c #014465",
"Z%	c #084F73",
"`%	c #075075",
" &	c #085277",
".&	c #074D71",
"+&	c #054667",
"@&	c #014160",
"#&	c #01405F",
"$&	c #024261",
"%&	c #024362",
"&&	c #044463",
"*&	c #044665",
"=&	c #044766",
"-&	c #054968",
";&	c #01334C",
">&	c #01354E",
",&	c #013650",
"'&	c #013753",
")&	c #013A57",
"!&	c #013B59",
"~&	c #013C5A",
"{&	c #013E5D",
"]&	c #014162",
"^&	c #024365",
"/&	c #014464",
"(&	c #024262",
"_&	c #014262",
":&	c #013E5B",
"<&	c #013E5A",
"[&	c #01405D",
"}&	c #00405E",
"|&	c #014260",
"1&	c #024361",
"2&	c #044765",
"3&	c #054867",
"4&	c #074A6B",
"5&	c #013148",
"6&	c #01314A",
"7&	c #00324B",
"8&	c #00344D",
"9&	c #013550",
"0&	c #013551",
"a&	c #003652",
"b&	c #003855",
"c&	c #003753",
"d&	c #003754",
"e&	c #003854",
"f&	c #013855",
"g&	c #013B57",
"h&	c #013D5A",
"i&	c #013C59",
"j&	c #003C58",
"k&	c #013C58",
"l&	c #01405C",
"m&	c #01415D",
"n&	c #034666",
"o&	c #04496A",
". + + + @ @ # $ % % & * = - ; > , ' ) ! ~ { ; ] ^ / $ ^ ( ^ % _ ",
"@ : < < [ } } < | 1 2 : _ ~ : 3 4 5 ; 6 7 8 ^ / { 9 0 a b c : ] ",
"< } d e f g g h g i j e k l m $ n o p q r { s 8 ] t u v w x + y ",
"d z A B C D E F E G H I J K L M N O P Q R S T U ] V t W X [ + Y ",
"e Z `  ...+.@.G G #.$.%.&.*.=.=.-.=.;.&.%.>.,.'.).!.~.&.{.} ].^.",
"/.g g (._.%.&.:.<.[.}.|.1.2.%.%.%.%.3.4.5.6.^.7.8.%.%.9.0.0 a.b.",
"e g g D c.%.%.d.e.#.D <.f.g.h.%.%.i.j.k.l.] m.n.o.%.%.p.q.r.s.t.",
"/.g g E u.%.%.%.v.#.w.x.h y.z.%.%.A.j.B.C.'.D.E.%.%.F.G.H.I.J.K.",
"/.g F E L.%.%.%.M.#.#.N.O.T P.%.%.Q.R.S.T.9 U.V.%.%.&.W.X.Y.Z.8 ",
"/.g F `. +%.%.%..+G D ++@+#+$+%.%.%+&+*+=+-+;+>+%.%.,+'+)+!+] Z.",
"~+F j G {+%.%.%.]+^+/+(+_+:+<+%.%.[+}+|+1+2+3+4+%.%.5+6+W.I.7+8+",
"g j G G 9+0+%.%.a+b+c+d+e+f+g+%.%.h+i+j+k+l+m+n+%.%.o+p+6.q+< _ ",
"g j G G r+s+%.%.t+u+v+w+x+y+z+%.%.A+B+C+D+E+F+G+%.%.H+s W.I+J+| ",
"K+L+#.#.D M+%.%.N+O+P+Q+R+S+T+%.%.h+U+V+W+X+Y+%.%.%.Z+`+0 Z.{ `+",
" @.@G #.+@@@..%.%.#@$@%@&@*@=@%.%.-@;@>@,@'@)@%.%.!@a.~@0 c _ {@",
"7+]@i #.+@+@^@/@%.%.(@_@:@<@[@%.%.}@|@1@2@3@%.%.4@5@0 ~@6@Z.7@k ",
"< < e #.#.+@8@9@0@%.%.a@b@c@d@%.%.e@f@g@h@%.%.i@j@k@3 l@m@Y '.n@",
": o@p@q@#.+@+@r@s@t@u@v@w@x@y@%.%.z@A@B@C@D@E@F@G@H@6.X.I@J@K@L@",
"p+_ _ e g j E +@+@+@+@8@r+M@N@%.%.O@P@s Q@R@S@H T@[ ] U@V@W@X@Y@",
"Z@6.l@* `@[ } d h F 8@ #.#+#@#%.%.##$#%#&#*#=#-#g p.;#>#,#'#)#!#",
"~#{#]#^#/#% _ $ $ 6+(#_#:#<#[#%.%.}#|#1#2#:@3#4#5#6#7#8#9#0#a#b#",
"c#d#e#f#6 g#k@s b.h#i#j#k#l#m#%.%.n#o#p#q#r#s#t#u#v#w#x#y#z#A#B#",
"C#D#E#F#G#H#I#J#K#n J.> 6 L#z.%.%.M#N#O#P#Q#R#S#T#U#V#W#X#Y#Z#`#",
" $.$+$@$#$$$%$&$*$=$-$;$Y.>$,$%.%.'$)$!$~${$]$^$/$($_$:$<$[$}$|$",
"1$2$3$4$5$6$7$8$9$0$a$b$c$H#A@%.%.d$e$f$g$h$i$j$k$l$m$n$o$p$q$r$",
"s$t$u$v$w$x$y$z$A$B$C$D$E$F$G$%.%.H$I$J$K$L$M$N$O$P$Q$R$S$T$U$V$",
"W$X$Y$Z$`$ %.%+%@%#%$%%%&%*%%.%.%.=%-%;%>%,%'%)%!%~%{%]%^%/%(%]%",
"_%:%<%[%}%>%|%1%[%2%3%4%5%%.%.%.%.%.%.6%7%8%9%0%a%b%c%d%e%f%g%h%",
"i%j%k%l%m%n%o%p%q%r%s%t%u%v%w%x%y%z%A%B%C%D%E%F%G%H%I%J%p%K%L%M%",
"N%O%P%Q%R%S%T%U%V%W%W%X%Y%c%Z%`% &.&c%+&l%@&#&#&@&$&%&&&*&=&-&-&",
";&>&,&'&O%)&)&)&!&!&!&~&{&]&I%I%^&/&(&_&T%:&<&j%<&[&}&|&1&2&3&4&",
"5&6&7&;&8&9&0&a&'&b&c&d&e&f&)&Q%!&g&Q%h&:&i&j&k&j&j&<&l&m&1&n&o&"};
